<svg fill="none" xmlns="http://www.w3.org/2000/svg" viewBox="0 0 20 18">
  <mask id="pknjrmaQVkDa" fill="#fff">
    <path fill-rule="evenodd" clip-rule="evenodd" d="M10.55.309a1 1 0 00-1.445 0L.28 9.529c-.61.636-.158 1.691.722 1.691h3.992v3.334c0 .933 0 1.4.182 1.756.16.314.414.569.728.729.356.181.823.181 1.757.181h4.333c.933 0 1.4 0 1.757-.181a1.67 1.67 0 00.728-.729c.182-.356.182-.823.182-1.756V11.22h3.992c.88 0 1.33-1.055.722-1.691L10.55.309z"/>
  </mask>
  <path d="M9.105.309l-.963-.922.963.922zm1.445 0l-.964.921.964-.921zM.28 9.529l-.964-.922.964.922zm4.714 1.691h1.333V9.887H4.994v1.333zm.182 5.09l1.188-.605-1.188.605zm.728.729l-.605 1.188.605-1.188zm7.847 0l.605 1.188-.605-1.188zm.728-.729l-1.188-.605 1.188.605zm.182-5.09V9.887h-1.334v1.333h1.334zm4.714-1.691l.963-.922-.963.922zM10.068 1.23a.333.333 0 01-.482 0l1.927-1.843a2.333 2.333 0 00-3.371 0l1.926 1.843zm-8.825 9.22l8.825-9.22L8.142-.613l-8.826 9.22 1.927 1.844zm-.241-.563c.293 0 .444.352.24.564L-.683 8.607c-1.42 1.484-.368 3.947 1.686 3.947V9.887zm3.992 0H1.002v2.667h3.992V9.887zm1.333 4.667V11.22H3.661v3.334h2.666zm.037 1.151c.02.041-.002.03-.018-.165a13.847 13.847 0 01-.019-.986H3.661c0 .444-.001.858.027 1.203.03.36.097.761.3 1.159l2.376-1.21zm.145.146a.334.334 0 01-.145-.146l-2.376 1.21a3 3 0 001.31 1.312L6.51 15.85zm1.152.036c-.49 0-.775 0-.986-.018-.196-.016-.207-.04-.166-.018L5.3 18.227c.397.202.798.27 1.158.3.345.028.759.027 1.204.027v-2.667zm4.333 0H7.66v2.667h4.333v-2.667zm1.151-.036c.041-.021.03.002-.165.018-.211.017-.497.018-.986.018v2.667c.445 0 .858 0 1.203-.027.36-.03.761-.098 1.159-.3l-1.21-2.376zm.146-.146a.333.333 0 01-.146.146l1.21 2.376a3 3 0 001.312-1.311l-2.376-1.21zm.036-1.151c0 .489 0 .775-.018.986-.016.195-.039.206-.018.165l2.376 1.21c.203-.397.27-.798.3-1.158.028-.345.027-.758.027-1.203h-2.667zm0-3.334v3.334h2.667V11.22h-2.667zm5.326-1.333H14.66v2.667h3.992V9.887zm-.241.564a.333.333 0 01.24-.564v2.667c2.055 0 3.107-2.463 1.686-3.947l-1.926 1.844zM9.586 1.23l8.826 9.22 1.926-1.844-8.825-9.22L9.586 1.23z" fill="#000" mask="url(#pknjrmaQVkDa)"/>
</svg>
